<svg width="25" height="24" viewBox="0 0 25 24" fill="none" xmlns="http://www.w3.org/2000/svg">
<path fill-rule="evenodd" clip-rule="evenodd" d="M12.4973 5.87958C9.11469 5.87958 6.38624 8.62167 6.38624 12.0212C6.38624 15.4208 9.11469 18.1629 12.4973 18.1629C15.88 18.1629 18.6084 15.4208 18.6084 12.0212C18.6084 8.62167 15.88 5.87958 12.4973 5.87958ZM12.4973 16.0141C10.3114 16.0141 8.52432 14.2235 8.52432 12.0212C8.52432 9.819 10.3061 8.02836 12.4973 8.02836C14.6886 8.02836 16.4703 9.819 16.4703 12.0212C16.4703 14.2235 14.6833 16.0141 12.4973 16.0141V16.0141ZM20.2838 5.62836C20.2838 6.42479 19.6455 7.06087 18.8584 7.06087C18.0659 7.06087 17.433 6.41945 17.433 5.62836C17.433 4.83726 18.0712 4.19584 18.8584 4.19584C19.6455 4.19584 20.2838 4.83726 20.2838 5.62836ZM24.3312 7.08225C24.2408 5.16332 23.8047 3.46354 22.4059 2.0631C21.0124 0.662653 19.3211 0.224346 17.4117 0.128132C15.4438 0.015883 9.5455 0.015883 7.57761 0.128132C5.67355 0.219001 3.98224 0.657308 2.58344 2.05775C1.18465 3.4582 0.753844 5.15798 0.658109 7.07691C0.546418 9.05464 0.546418 14.9825 0.658109 16.9602C0.748525 18.8791 1.18465 20.5789 2.58344 21.9794C3.98224 23.3798 5.66823 23.8181 7.57761 23.9143C9.5455 24.0266 15.4438 24.0266 17.4117 23.9143C19.3211 23.8235 21.0124 23.3851 22.4059 21.9794C23.7994 20.5789 24.2355 18.8791 24.3312 16.9602C24.4429 14.9825 24.4429 9.05998 24.3312 7.08225ZM21.7889 19.0823C21.3741 20.1299 20.571 20.937 19.5232 21.3593C17.9542 21.9847 14.2312 21.8404 12.4973 21.8404C10.7635 21.8404 7.03511 21.9794 5.47144 21.3593C4.429 20.9424 3.62589 20.1353 3.20572 19.0823C2.58344 17.5054 2.72705 13.7638 2.72705 12.0212C2.72705 10.2787 2.58876 6.5317 3.20572 4.9602C3.62057 3.91254 4.42368 3.10542 5.47144 2.68314C7.04043 2.05775 10.7635 2.20207 12.4973 2.20207C14.2312 2.20207 17.9595 2.0631 19.5232 2.68314C20.5656 3.10007 21.3687 3.9072 21.7889 4.9602C22.4112 6.53704 22.2676 10.2787 22.2676 12.0212C22.2676 13.7638 22.4112 17.5108 21.7889 19.0823Z" fill="white"/>
</svg>
