<svg width="25" height="24" viewBox="0 0 25 24" fill="none" xmlns="http://www.w3.org/2000/svg">
<path fill-rule="evenodd" clip-rule="evenodd" d="M17.4245 22.0001H17.4245C8.94743 21.9891 2.07811 15.1007 2.06714 6.60011H2.06714C2.06714 4.0596 4.12093 2.00011 6.65441 2.00011V2.00011C6.91204 1.99815 7.16923 2.02159 7.42228 2.07011L7.42228 2.07011C7.66691 2.10641 7.9074 2.1667 8.14029 2.25011V2.25011C8.47355 2.36737 8.72011 2.65265 8.78849 3.00011L10.1547 9.00011V9.00011C10.2295 9.33103 10.1319 9.67742 9.89542 9.92011C9.76578 10.0601 9.7558 10.0701 8.52921 10.7101V10.7101C9.51147 12.871 11.2349 14.6063 13.3857 15.6001C14.0339 14.3601 14.0439 14.3501 14.1835 14.2201V14.2201C14.4255 13.983 14.771 13.8851 15.101 13.9601L21.0844 15.3301V15.3301C21.4195 15.4081 21.6909 15.6538 21.8024 15.9801V15.9801C21.8865 16.2175 21.9499 16.4617 21.9919 16.7101V16.7101C22.032 16.9614 22.052 17.2156 22.0517 17.4701V17.4701C22.0134 19.9989 19.9465 22.0224 17.4245 22.0001L17.4245 22.0001Z" fill="white"/>
</svg>
