<svg width="25" height="24" viewBox="0 0 25 24" fill="none" xmlns="http://www.w3.org/2000/svg">
<path fill-rule="evenodd" clip-rule="evenodd" d="M22.1313 6.98631C22.1465 7.20496 22.1465 7.42367 22.1465 7.64232C22.1465 14.3116 17.211 21.9961 8.19027 21.9961C5.41116 21.9961 2.82949 21.1682 0.657837 19.7314C1.0527 19.7782 1.43232 19.7938 1.84237 19.7938C4.13547 19.7938 6.24641 18.9973 7.9321 17.6384C5.77563 17.5916 3.96845 16.139 3.3458 14.1398C3.64955 14.1866 3.95326 14.2178 4.2722 14.2178C4.71259 14.2178 5.15303 14.1553 5.56303 14.0461C3.31546 13.5775 1.62972 11.547 1.62972 9.09487V9.03242C2.28271 9.40727 3.04209 9.64155 3.84691 9.67275C2.5257 8.76684 1.66011 7.22059 1.66011 5.47126C1.66011 4.53415 1.90304 3.67511 2.32829 2.9254C4.74293 5.98669 8.37249 7.98588 12.4424 8.20458C12.3665 7.82972 12.3209 7.43929 12.3209 7.04881C12.3209 4.26862 14.5077 2.00391 17.2261 2.00391C18.6384 2.00391 19.9141 2.61304 20.8101 3.59703C21.9186 3.37838 22.9817 2.95665 23.9233 2.37876C23.5588 3.5502 22.7843 4.53419 21.7668 5.15891C22.7539 5.04963 23.7107 4.76843 24.5915 4.37799C23.9234 5.37756 23.0881 6.2678 22.1313 6.98631Z" fill="white"/>
</svg>
